<svg xmlns="http://www.w3.org/2000/svg" viewBox="0 0 934.59 227.5"><defs><style>.cls-1{fill:none;stroke:red;}.cls-1,.cls-2,.cls-3{stroke-miterlimit:10;}.cls-2{font-size:72px;}.cls-2,.cls-3{stroke:aqua;font-family:BoucherieSans, Boucherie Sans;}.cls-3{font-size:100px;}</style></defs><g id="レイヤー_1" data-name="レイヤー 1"><path d="M335,469.38c0,9.6-9,20.7-24.6,20.7h-59.1c-14.1,0-23.4-6.9-23.4-19.2V287.58c0-8.7-12.9-17.1-12.9-21,0-2.1,1.2-3,3.3-3h49.2c2.1,0,3.3.9,3.3,3,0,3.9-12.9,12.3-12.9,21V448.89a17.2,17.2,0,0,0,17.2,17.19h24.2a6,6,0,0,0,5.7-6.3V287.58c0-8.7-12.9-17.1-12.9-21,0-2.1,1.2-3,3.3-3h49.2c2.1,0,3.3.9,3.3,3,0,3.9-12.9,12.3-12.9,21Zm143.4,20.7c-4.43,0-6.53-2.9-9.74-8.7a6.54,6.54,0,0,1-.3-.59L404.56,347.28c-1.5-3-1.8-3.9-3.3-3.9-1.2,0-1.5.9-1.5,3.3v119.4c0,8.71,12.9,17.1,12.9,21,0,2.1-1.2,3-3.3,3h-47.7c-2.1,0-3.3-.9-3.3-3,0-3.9,12.9-12.29,12.9-21V287.58c0-8.7-12.9-17.1-12.9-21,0-2.1,1.2-3,3.3-3h34.2c4.5,0,7.2,3,9.9,9l65.7,144.9c.6,1.2,1.2,2.4,2.1,2.4s.9-1.8.9-1.8V287.58c0-8.7-12.9-17.1-12.9-21,0-2.1,1.2-3,3.3-3h47.7c2.1,0,3.3.9,3.3,3,0,3.9-12.9,12.3-12.9,21v196.5c0,3-1.2,6-5.7,6Zm158.1-201.3c0-.6.3-.9.3-1.5,0-7.2-10.5-18.3-10.5-20.7,0-2.1,1.2-3,3.3-3h50.1c2.1,0,3.3.9,3.3,3,0,3.9-11.4,9.9-14.4,22.2l-44.4,177.3a8.34,8.34,0,0,0-.3,2.71c0,7.5,7.2,14.7,7.2,18.29,0,2.1-1.2,3-3.3,3h-49.2c-2.1,0-3.3-.9-3.3-3,0-3.59,7.2-10.79,7.2-18.29a8.34,8.34,0,0,0-.3-2.71l-44.4-177.3c-3-12.3-14.4-18.3-14.4-22.2,0-2.1,1.2-3,3.3-3h49.8c2.1,0,3.3.9,3.3,3,0,2.4-10.5,13.5-10.5,20.7,0,.6.3.9.3,1.5,4.2,17.7,32.1,137.7,32.1,137.7s.6,1.8,1.5,1.8,1.5-1.8,1.5-1.8S632.26,306.48,636.46,288.78Zm147,201.3h-59.1c-14.1,0-23.4-6.9-23.4-19.2V282.78c0-12.3,9.3-19.2,23.4-19.2h59.1c15.6,0,24.6,11.1,24.6,20.7v185.1C808.05,479,799.05,490.08,783.45,490.08Zm-11.1-202.5h-24.5a16.9,16.9,0,0,0-16.9,16.9V448.89a17.2,17.2,0,0,0,17.2,17.19h24.2a6,6,0,0,0,5.7-6.3V293.88A6,6,0,0,0,772.35,287.58Zm101.1,178.5c0,8.71,12.9,17.1,12.9,21,0,2.1-1.2,3-3.3,3h-49.2c-2.1,0-3.3-.9-3.3-3,0-3.9,12.9-12.29,12.9-21V287.58c0-8.7-12.9-17.1-12.9-21,0-2.1,1.2-3,3.3-3h49.2c2.1,0,3.3.9,3.3,3,0,3.9-12.9,12.3-12.9,21ZM986,293.88a6,6,0,0,0-5.7-6.3h-24.5a16.9,16.9,0,0,0-16.9,16.9V448.89A17.19,17.19,0,0,0,956,466.08h24.21a6,6,0,0,0,5.7-6.3V431c0-5.1.9-7.2,3-8.7,0,0,20.1-14.4,23.1-14.4,2.7,0,3.9,1.5,3.9,4.2v57.3c0,9.6-9,20.7-24.6,20.7h-59.1c-14.1,0-23.4-6.9-23.4-19.2V282.78c0-12.3,9.3-19.2,23.4-19.2h59.1c15.6,0,24.6,11.1,24.6,20.7v29.4c0,5.1-.9,7.2-3,8.7,0,0-20.1,14.4-23.1,14.4-2.7,0-3.9-1.5-3.9-4.2Zm132.59-.3c0-3.6-2.39-6-5.09-6H1078c-2.7,0-4.2,1.5-4-4.2l.63,75a10.59,10.59,0,0,0,14.29,9.84l22.85-8.49a10.43,10.43,0,0,0,1.78-.86c1.86-1.12,3.39-2,4.7-2,1.79,0,2.7,1.8,2.7,3.9l0,24.22a7.24,7.24,0,0,1-4.74,2,10.58,10.58,0,0,0-5.39,1.4l-32.6,19.66a10.59,10.59,0,0,0-5.12,9.24l.69,44c0,3,1.8,4.79,4.5,4.79h34.51a6,6,0,0,0,5.69-6.3V440c0-5.1.91-7.2,3-8.7,0,0,20.11-12.9,23.11-12.9,2.7,0,3.9,1.5,3.9,4.2v59.1c0,5.4-2.7,8.4-9,8.4H1034.24c-2.1,0-3.3-.9-3.3-3,0-3.9,12.9-12.29,12.9-21V287.58c0-8.7-12.9-17.1-12.9-21,0-2.1,1.2-3,3.3-3h105c6.6,0,9.3,3,9.3,7.2v33.9c0,5.1-.9,7.2-3,8.7,0,0-20.1,14.4-23.1,14.4-2.7,0-3.91-1.5-3.91-4.2Z" transform="translate(-214.46 -263.08)"/><path class="cls-1" d="M335,469.38c0,9.6-9,20.7-24.6,20.7h-59.1c-14.1,0-23.4-6.9-23.4-19.2V287.58c0-8.7-12.9-17.1-12.9-21,0-2.1,1.2-3,3.3-3h49.2c2.1,0,3.3.9,3.3,3,0,3.9-12.9,12.3-12.9,21V448.89a17.2,17.2,0,0,0,17.2,17.19h24.2a6,6,0,0,0,5.7-6.3V287.58c0-8.7-12.9-17.1-12.9-21,0-2.1,1.2-3,3.3-3h49.2c2.1,0,3.3.9,3.3,3,0,3.9-12.9,12.3-12.9,21Zm143.4,20.7c-4.43,0-6.53-2.9-9.74-8.7a6.54,6.54,0,0,1-.3-.59L404.56,347.28c-1.5-3-1.8-3.9-3.3-3.9-1.2,0-1.5.9-1.5,3.3v119.4c0,8.71,12.9,17.1,12.9,21,0,2.1-1.2,3-3.3,3h-47.7c-2.1,0-3.3-.9-3.3-3,0-3.9,12.9-12.29,12.9-21V287.58c0-8.7-12.9-17.1-12.9-21,0-2.1,1.2-3,3.3-3h34.2c4.5,0,7.2,3,9.9,9l65.7,144.9c.6,1.2,1.2,2.4,2.1,2.4s.9-1.8.9-1.8V287.58c0-8.7-12.9-17.1-12.9-21,0-2.1,1.2-3,3.3-3h47.7c2.1,0,3.3.9,3.3,3,0,3.9-12.9,12.3-12.9,21v196.5c0,3-1.2,6-5.7,6Zm158.1-201.3c0-.6.3-.9.3-1.5,0-7.2-10.5-18.3-10.5-20.7,0-2.1,1.2-3,3.3-3h50.1c2.1,0,3.3.9,3.3,3,0,3.9-11.4,9.9-14.4,22.2l-44.4,177.3a8.34,8.34,0,0,0-.3,2.71c0,7.5,7.2,14.7,7.2,18.29,0,2.1-1.2,3-3.3,3h-49.2c-2.1,0-3.3-.9-3.3-3,0-3.59,7.2-10.79,7.2-18.29a8.34,8.34,0,0,0-.3-2.71l-44.4-177.3c-3-12.3-14.4-18.3-14.4-22.2,0-2.1,1.2-3,3.3-3h49.8c2.1,0,3.3.9,3.3,3,0,2.4-10.5,13.5-10.5,20.7,0,.6.3.9.3,1.5,4.2,17.7,32.1,137.7,32.1,137.7s.6,1.8,1.5,1.8,1.5-1.8,1.5-1.8S632.26,306.48,636.46,288.78Zm147,201.3h-59.1c-14.1,0-23.4-6.9-23.4-19.2V282.78c0-12.3,9.3-19.2,23.4-19.2h59.1c15.6,0,24.6,11.1,24.6,20.7v185.1C808.05,479,799.05,490.08,783.45,490.08Zm-11.1-202.5h-24.5a16.9,16.9,0,0,0-16.9,16.9V448.89a17.2,17.2,0,0,0,17.2,17.19h24.2a6,6,0,0,0,5.7-6.3V293.88A6,6,0,0,0,772.35,287.58Zm101.1,178.5c0,8.71,12.9,17.1,12.9,21,0,2.1-1.2,3-3.3,3h-49.2c-2.1,0-3.3-.9-3.3-3,0-3.9,12.9-12.29,12.9-21V287.58c0-8.7-12.9-17.1-12.9-21,0-2.1,1.2-3,3.3-3h49.2c2.1,0,3.3.9,3.3,3,0,3.9-12.9,12.3-12.9,21ZM986,293.88a6,6,0,0,0-5.7-6.3h-24.5a16.9,16.9,0,0,0-16.9,16.9V448.89A17.19,17.19,0,0,0,956,466.08h24.21a6,6,0,0,0,5.7-6.3V431c0-5.1.9-7.2,3-8.7,0,0,20.1-14.4,23.1-14.4,2.7,0,3.9,1.5,3.9,4.2v57.3c0,9.6-9,20.7-24.6,20.7h-59.1c-14.1,0-23.4-6.9-23.4-19.2V282.78c0-12.3,9.3-19.2,23.4-19.2h59.1c15.6,0,24.6,11.1,24.6,20.7v29.4c0,5.1-.9,7.2-3,8.7,0,0-20.1,14.4-23.1,14.4-2.7,0-3.9-1.5-3.9-4.2Zm132.59-.3c0-3.6-2.39-6-5.09-6H1078c-2.7,0-4.2,1.5-4-4.2l.63,75a10.59,10.59,0,0,0,14.29,9.84l22.85-8.49a10.43,10.43,0,0,0,1.78-.86c1.86-1.12,3.39-2,4.7-2,1.79,0,2.7,1.8,2.7,3.9l0,24.22a7.24,7.24,0,0,1-4.74,2,10.58,10.58,0,0,0-5.39,1.4l-32.6,19.66a10.59,10.59,0,0,0-5.12,9.24l.69,44c0,3,1.8,4.79,4.5,4.79h34.51a6,6,0,0,0,5.69-6.3V440c0-5.1.91-7.2,3-8.7,0,0,20.11-12.9,23.11-12.9,2.7,0,3.9,1.5,3.9,4.2v59.1c0,5.4-2.7,8.4-9,8.4H1034.24c-2.1,0-3.3-.9-3.3-3,0-3.9,12.9-12.29,12.9-21V287.58c0-8.7-12.9-17.1-12.9-21,0-2.1,1.2-3,3.3-3h105c6.6,0,9.3,3,9.3,7.2v33.9c0,5.1-.9,7.2-3,8.7,0,0-20.1,14.4-23.1,14.4-2.7,0-3.91-1.5-3.91-4.2Z" transform="translate(-214.46 -263.08)"/><text class="cls-2" transform="translate(753.73 90.13) rotate(177.85)">c</text><text class="cls-3" transform="translate(788.77 80.47) rotate(177.85)">c</text></g></svg>